<?xml version="1.0" encoding="UTF-8" standalone="no"?>
<svg
   xmlns:dc="http://purl.org/dc/elements/1.1/"
   xmlns:cc="http://creativecommons.org/ns#"
   xmlns:rdf="http://www.w3.org/1999/02/22-rdf-syntax-ns#"
   xmlns:svg="http://www.w3.org/2000/svg"
   xmlns="http://www.w3.org/2000/svg"
   xmlns:sodipodi="http://sodipodi.sourceforge.net/DTD/sodipodi-0.dtd"
   xmlns:inkscape="http://www.inkscape.org/namespaces/inkscape"
   width="48"
   height="48"
   viewBox="0 0 48 48"
   version="1.1"
   id="svg4608"
   sodipodi:docname="bottom_48px.svg"
   inkscape:version="0.92.2 (5c3e80d, 2017-08-06)">
  <metadata
     id="metadata4614">
    <rdf:RDF>
      <cc:Work
         rdf:about="">
        <dc:format>image/svg+xml</dc:format>
        <dc:type
           rdf:resource="http://purl.org/dc/dcmitype/StillImage" />
        <dc:title></dc:title>
      </cc:Work>
    </rdf:RDF>
  </metadata>
  <defs
     id="defs4612" />
  <sodipodi:namedview
     pagecolor="#ffffff"
     bordercolor="#666666"
     borderopacity="1"
     objecttolerance="10"
     gridtolerance="10"
     guidetolerance="10"
     inkscape:pageopacity="0"
     inkscape:pageshadow="2"
     inkscape:window-width="1533"
     inkscape:window-height="845"
     id="namedview4610"
     showgrid="false"
     inkscape:zoom="13.833333"
     inkscape:cx="24"
     inkscape:cy="24"
     inkscape:window-x="67"
     inkscape:window-y="27"
     inkscape:window-maximized="1"
     inkscape:current-layer="svg4608" />
  <path
     d="M 38.65,31.78 C 40.74,29.07 42,25.69 42,22 H 12.88 l -1.9,-4 H 4 v 4 h 4.45 c 0,0 3.78,8.14 4.24,8.83 C 10.49,32.02 9,34.33 9,37 c 0,3.87 3.13,7 7,7 3.53,0 6.43,-2.61 6.92,-6 h 4.16 c 0.49,3.39 3.39,6 6.92,6 3.87,0 7,-3.13 7,-7 0,-2.08 -0.91,-3.94 -2.35,-5.22 z M 16,40 c -1.66,0 -3,-1.34 -3,-3 0,-1.66 1.34,-3 3,-3 1.66,0 3,1.34 3,3 0,1.66 -1.34,3 -3,3 z m 18,0 c -1.66,0 -3,-1.34 -3,-3 0,-1.66 1.34,-3 3,-3 1.66,0 3,1.34 3,3 0,1.66 -1.34,3 -3,3 z"
     id="path4606"
     inkscape:connector-curvature="0"
     sodipodi:nodetypes="ccccccccssccsscssssssssss" />
  <path
     id="path4649"
     d="m 26.489089,3.4003457 v 2.828427 c 7.028641,0 12.727922,5.6992803 12.727922,12.7279213 h 2.828427 c 0,-8.591347 -6.965002,-15.5563483 -15.556349,-15.5563483 z m 0,11.3137073 v 4.242641 h 4.242641 c 0,-2.340523 -1.902118,-4.242641 -4.242641,-4.242641 z m 0,-5.6568533 v 2.8284263 c 3.903229,0 7.071068,3.167839 7.071068,7.071068 h 2.828427 c 0,-5.465935 -4.43356,-9.8994943 -9.899495,-9.8994943 z"
     inkscape:connector-curvature="0"
     style="stroke-width:0.5" />
</svg>
